<?xml version="1.0" encoding="utf-8"?>
<!-- Generator: Adobe Illustrator 19.2.0, SVG Export Plug-In . SVG Version: 6.00 Build 0)  -->
<svg version="1.1" xmlns="http://www.w3.org/2000/svg" xmlns:xlink="http://www.w3.org/1999/xlink" x="0px" y="0px"
	 viewBox="0 0 222.6 201.6" style="enable-background:new 0 0 222.6 201.6;" xml:space="preserve">
<style type="text/css">
	.st0{fill:#FFFF00;}
	.st1{fill:#FFFFFF;}
	.st2{display:none;}
	.st3{display:inline;}
	.st4{filter:url(#Adobe_OpacityMaskFilter);}
	.st5{filter:url(#Adobe_OpacityMaskFilter_1_);}
	.st6{mask:url(#SVGID_1_);fill:url(#SVGID_2_);}
	.st7{fill:url(#SVGID_3_);}
	.st8{filter:url(#Adobe_OpacityMaskFilter_2_);}
	.st9{filter:url(#Adobe_OpacityMaskFilter_3_);}
	.st10{mask:url(#SVGID_4_);fill:url(#SVGID_5_);}
	.st11{fill:url(#SVGID_6_);}
	.st12{filter:url(#Adobe_OpacityMaskFilter_4_);}
	.st13{filter:url(#Adobe_OpacityMaskFilter_5_);}
	.st14{mask:url(#SVGID_7_);fill:url(#SVGID_8_);}
	.st15{fill:url(#SVGID_9_);}
	.st16{fill:url(#SVGID_10_);}
	.st17{fill:url(#SVGID_11_);}
	.st18{fill:#505050;}
	.st19{fill:url(#SVGID_12_);}
	.st20{fill:url(#SVGID_13_);}
	.st21{fill:url(#SVGID_14_);}
	.st22{fill:url(#SVGID_15_);}
</style>
<g id="πœ_xBA_h_x5F_17">
	<rect class="st0" width="1000" height="1000"/>
	<rect class="st1" width="1000" height="1000"/>
	<g>
	</g>
</g>
<g id="πœ_xBA_h_x5F_1">
</g>
<g id="πœ_xBA_h_x5F_2">
</g>
<g id="πœ_xBA_h_x5F_3">
</g>
<g id="πœ_xBA_h_x5F_4">
</g>
<g id="πœ_xBA_h_x5F_5">
</g>
<g id="πœ_xBA_h_x5F_6">
</g>
<g id="πœ_xBA_h_x5F_7">
</g>
<g id="πœ_xBA_h_x5F_8">
</g>
<g id="πœ_xBA_h_x5F_9">
</g>
<g id="πœ_xBA_h_x5F_10">
</g>
<g id="πœ_xBA_h_x5F_11">
</g>
<g id="πœ_xBA_h_x5F_12">
</g>
<g id="πœ_xBA_h_x5F_13" class="st2">
	<g class="st3">
		<defs>
			<filter id="Adobe_OpacityMaskFilter" filterUnits="userSpaceOnUse" x="815" y="264.2" width="65.6" height="35.2">
				<feFlood  style="flood-color:white;flood-opacity:1" result="back"/>
				<feBlend  in="SourceGraphic" in2="back" mode="normal"/>
			</filter>
		</defs>
		<mask maskUnits="userSpaceOnUse" x="815" y="264.2" width="65.6" height="35.2" id="SVGID_1_">
			<g class="st4">
				<defs>
					<filter id="Adobe_OpacityMaskFilter_1_" filterUnits="userSpaceOnUse" x="815" y="264.2" width="65.6" height="35.2">
						<feFlood  style="flood-color:white;flood-opacity:1" result="back"/>
						<feBlend  in="SourceGraphic" in2="back" mode="normal"/>
					</filter>
				</defs>
				<mask maskUnits="userSpaceOnUse" x="815" y="264.2" width="65.6" height="35.2" id="SVGID_1_">
					<g class="st5">
					</g>
				</mask>
				<linearGradient id="SVGID_2_" gradientUnits="userSpaceOnUse" x1="847.7628" y1="247.0004" x2="847.7628" y2="290.0001">
					<stop  offset="0" style="stop-color:#FFFFFF"/>
					<stop  offset="0.6632" style="stop-color:#000000"/>
				</linearGradient>
				<path class="st6" d="M876.8,276c0,0-1.1-1.4-3.5-0.8l-10.4,3.3l-22-12.7c-2.9-1.7-7.7-2.2-10.8-1.2l-12.8,4.1
					c-3.1,1-3.3,3.1-0.4,4.8l22,12.7l-10.8,3.5c-2.1,0.8,0.7,1.7,0.7,1.7l48.9,8c0,0,1.4,0.2,2.1,0c0.7-0.2,0.7-0.9,0.7-0.9
					L876.8,276z"/>
			</g>
		</mask>
		<linearGradient id="SVGID_3_" gradientUnits="userSpaceOnUse" x1="847.7628" y1="247.0004" x2="847.7628" y2="290.0001">
			<stop  offset="0" style="stop-color:#868686"/>
			<stop  offset="0.6632" style="stop-color:#FFFFFF"/>
		</linearGradient>
		<path class="st7" d="M876.8,276c0,0-1.1-1.4-3.5-0.8l-10.4,3.3l-22-12.7c-2.9-1.7-7.7-2.2-10.8-1.2l-12.8,4.1
			c-3.1,1-3.3,3.1-0.4,4.8l22,12.7l-10.8,3.5c-2.1,0.8,0.7,1.7,0.7,1.7l48.9,8c0,0,1.4,0.2,2.1,0c0.7-0.2,0.7-0.9,0.7-0.9L876.8,276
			z"/>
		<defs>
			<filter id="Adobe_OpacityMaskFilter_2_" filterUnits="userSpaceOnUse" x="732.7" y="264.2" width="65.6" height="35.2">
				<feFlood  style="flood-color:white;flood-opacity:1" result="back"/>
				<feBlend  in="SourceGraphic" in2="back" mode="normal"/>
			</filter>
		</defs>
		<mask maskUnits="userSpaceOnUse" x="732.7" y="264.2" width="65.6" height="35.2" id="SVGID_4_">
			<g class="st8">
				<defs>
					<filter id="Adobe_OpacityMaskFilter_3_" filterUnits="userSpaceOnUse" x="732.7" y="264.2" width="65.6" height="35.2">
						<feFlood  style="flood-color:white;flood-opacity:1" result="back"/>
						<feBlend  in="SourceGraphic" in2="back" mode="normal"/>
					</filter>
				</defs>
				<mask maskUnits="userSpaceOnUse" x="732.7" y="264.2" width="65.6" height="35.2" id="SVGID_4_">
					<g class="st9">
					</g>
				</mask>
				<linearGradient id="SVGID_5_" gradientUnits="userSpaceOnUse" x1="765.4625" y1="247.0004" x2="765.4625" y2="290.0001">
					<stop  offset="0" style="stop-color:#FFFFFF"/>
					<stop  offset="0.6632" style="stop-color:#000000"/>
				</linearGradient>
				<path class="st10" d="M795.8,268.7l-12.8-4.1c-3.1-1-7.9-0.5-10.8,1.2l-22,12.7l-10.4-3.3c-2.4-0.7-3.5,0.8-3.5,0.8l-3.8,22.4
					c0,0,0,0.6,0.7,0.9c0.7,0.2,2.1,0,2.1,0l48.9-8c0,0,2.8-0.9,0.7-1.7l-10.8-3.5l22-12.7C799.1,271.9,798.9,269.7,795.8,268.7z"/>
			</g>
		</mask>
		<linearGradient id="SVGID_6_" gradientUnits="userSpaceOnUse" x1="765.4625" y1="247.0004" x2="765.4625" y2="290.0001">
			<stop  offset="0" style="stop-color:#868686"/>
			<stop  offset="0.6632" style="stop-color:#FFFFFF"/>
		</linearGradient>
		<path class="st11" d="M795.8,268.7l-12.8-4.1c-3.1-1-7.9-0.5-10.8,1.2l-22,12.7l-10.4-3.3c-2.4-0.7-3.5,0.8-3.5,0.8l-3.8,22.4
			c0,0,0,0.6,0.7,0.9c0.7,0.2,2.1,0,2.1,0l48.9-8c0,0,2.8-0.9,0.7-1.7l-10.8-3.5l22-12.7C799.1,271.9,798.9,269.7,795.8,268.7z"/>
		<defs>
			<filter id="Adobe_OpacityMaskFilter_4_" filterUnits="userSpaceOnUse" x="782.4" y="244.8" width="48.2" height="20.6">
				<feFlood  style="flood-color:white;flood-opacity:1" result="back"/>
				<feBlend  in="SourceGraphic" in2="back" mode="normal"/>
			</filter>
		</defs>
		<mask maskUnits="userSpaceOnUse" x="782.4" y="244.8" width="48.2" height="20.6" id="SVGID_7_">
			<g class="st12">
				<defs>
					<filter id="Adobe_OpacityMaskFilter_5_" filterUnits="userSpaceOnUse" x="782.4" y="244.8" width="48.2" height="20.6">
						<feFlood  style="flood-color:white;flood-opacity:1" result="back"/>
						<feBlend  in="SourceGraphic" in2="back" mode="normal"/>
					</filter>
				</defs>
				<mask maskUnits="userSpaceOnUse" x="782.4" y="244.8" width="48.2" height="20.6" id="SVGID_7_">
					<g class="st13">
					</g>
				</mask>
				<linearGradient id="SVGID_8_" gradientUnits="userSpaceOnUse" x1="806.4561" y1="247" x2="806.4561" y2="290">
					<stop  offset="0" style="stop-color:#FFFFFF"/>
					<stop  offset="0.6632" style="stop-color:#000000"/>
				</linearGradient>
				<ellipse class="st14" cx="806.5" cy="255.1" rx="24.1" ry="10.3"/>
			</g>
		</mask>
		<linearGradient id="SVGID_9_" gradientUnits="userSpaceOnUse" x1="806.4561" y1="247" x2="806.4561" y2="290">
			<stop  offset="0" style="stop-color:#868686"/>
			<stop  offset="0.6632" style="stop-color:#FFFFFF"/>
		</linearGradient>
		<ellipse class="st15" cx="806.5" cy="255.1" rx="24.1" ry="10.3"/>
	</g>
	<g class="st3">
		<g>
			<linearGradient id="SVGID_10_" gradientUnits="userSpaceOnUse" x1="847.7628" y1="204.0822" x2="847.7628" y2="126.9783">
				<stop  offset="0" style="stop-color:#0578C8"/>
				<stop  offset="1" style="stop-color:#50AFE1"/>
			</linearGradient>
			<path class="st16" d="M879.9,117.6c-0.7-0.5-2.1-0.1-2.1-0.1l-48.9,18.6c0,0-2.8,2-0.7,3.9l10.8,8.1l-22,29.6
				c-2.9,3.9-2.7,8.9,0.4,11.2l12.8,9.6c3.1,2.3,7.9,1.1,10.8-2.8l22-29.6l10.4,7.8c2.4,1.5,3.5-1.8,3.5-1.8l3.8-52.4
				C880.6,119.6,880.6,118.1,879.9,117.6z"/>
			<linearGradient id="SVGID_11_" gradientUnits="userSpaceOnUse" x1="765.4625" y1="204.0822" x2="765.4625" y2="126.9783">
				<stop  offset="0" style="stop-color:#0578C8"/>
				<stop  offset="1" style="stop-color:#50AFE1"/>
			</linearGradient>
			<path class="st17" d="M774.3,148.1l10.8-8.1c2.1-1.8-0.7-3.9-0.7-3.9l-48.9-18.6c0,0-1.4-0.4-2.1,0.1c-0.7,0.6-0.7,2-0.7,2
				l3.8,52.4c0,0,1.1,3.3,3.5,1.8l10.4-7.8l22,29.6c2.9,3.9,7.7,5.1,10.8,2.8l12.8-9.6c3.1-2.3,3.3-7.3,0.4-11.2L774.3,148.1z"/>
		</g>
		<circle class="st18" cx="806.5" cy="220.7" r="24.1"/>
	</g>
</g>
<g id="πœ_xBA_h_x5F_14">
	<linearGradient id="SVGID_12_" gradientUnits="userSpaceOnUse" x1="120.8153" y1="25.1087" x2="120.8153" y2="145.6848">
		<stop  offset="0" style="stop-color:#50AFE1"/>
		<stop  offset="1" style="stop-color:#0578C8"/>
	</linearGradient>
	<path class="st19" d="M198.2,27.9c-5,5-10,10-15,15c3,2,4.9,5.3,4.9,9v67.1c0,6.1-5.4,11.1-12.1,11.1H65.6c-6.7,0-12.1-5-12.1-11.1
		V51.9c0-6.1,5.4-11.1,12.1-11.1h54.2c3.9-12,8-14.9,9.4-15.5c0-0.1,0.1-0.1,0.1-0.2H52.2c-8.3,0-15,6.7-15,15v90.6
		c0,8.3,6.7,15,15,15h137.3c8.3,0,15-6.7,15-15V40.1C204.5,35.1,202,30.6,198.2,27.9z"/>
	
		<linearGradient id="SVGID_13_" gradientUnits="userSpaceOnUse" x1="1078.3971" y1="25.1087" x2="1078.3971" y2="145.6848" gradientTransform="matrix(-1 0 0 1 1199.2129 0)">
		<stop  offset="0" style="stop-color:#50AFE1"/>
		<stop  offset="1" style="stop-color:#0578C8"/>
	</linearGradient>
	<path class="st20" d="M43.4,27.9c5,5,10,10,15,15c-3,2-4.9,5.3-4.9,9v67.1c0,6.1,5.4,11.1,12.1,11.1h110.5c6.7,0,12.1-5,12.1-11.1
		V51.9c0-6.1-5.4-11.1-12.1-11.1h-64.9c-3.9-12,2.7-14.9,1.4-15.5c0-0.1-0.1-0.1-0.1-0.2h77.1c8.3,0,15,6.7,15,15v90.6
		c0,8.3-6.7,15-15,15H52.2c-8.3,0-15-6.7-15-15V40.1C37.2,35.1,39.6,30.6,43.4,27.9z"/>
	<path class="st1" d="M188.6,53.2c-5,5-10,10-15,15c3,2,4.9,5.3,4.9,9v67.1c0,6.1-5.4,11.1-12.1,11.1H56c-6.7,0-12.1-5-12.1-11.1
		V77.1C43.9,71,49.3,66,56,66h54.2c3.9-12,8-14.9,9.4-15.5c0-0.1,0.1-0.1,0.1-0.2H42.6c-8.3,0-15,6.7-15,15V156c0,8.3,6.7,15,15,15
		h137.3c8.3,0,15-6.7,15-15V65.4C194.9,60.3,192.4,55.9,188.6,53.2z"/>
	<path class="st1" d="M33.9,53.2c5,5,10,10,15,15c-3,2-4.9,5.3-4.9,9v67.1c0,6.1,5.4,11.1,12.1,11.1h110.5c6.7,0,12.1-5,12.1-11.1
		V77.1c0-6.1-5.4-11.1-12.1-11.1h-64.9c-3.9-12,2.7-14.9,1.4-15.5c0-0.1-0.1-0.1-0.1-0.2h77.1c8.3,0,15,6.7,15,15V156
		c0,8.3-6.7,15-15,15H42.6c-8.3,0-15-6.7-15-15V65.4C27.6,60.3,30.1,55.9,33.9,53.2z"/>
	<rect x="38" y="60.8" class="st1" width="140" height="109.6"/>
	<g>
		<linearGradient id="SVGID_14_" gradientUnits="userSpaceOnUse" x1="107.7428" y1="54.3152" x2="107.7428" y2="174.8913">
			<stop  offset="0" style="stop-color:#50AFE1"/>
			<stop  offset="1" style="stop-color:#0578C8"/>
		</linearGradient>
		<path class="st21" d="M185.1,57.1c-5,5-10,10-15,15c3,2,4.9,5.3,4.9,9v67.1c0,6.1-5.4,11.1-12.1,11.1H52.5
			c-6.7,0-12.1-5-12.1-11.1V81.1c0-6.1,5.4-11.1,12.1-11.1h54.2c3.9-12,8-14.9,9.4-15.5c0-0.1,0.1-0.1,0.1-0.2H39.1
			c-8.3,0-15,6.7-15,15v90.6c0,8.3,6.7,15,15,15h137.3c8.3,0,15-6.7,15-15V69.3C191.4,64.3,188.9,59.8,185.1,57.1z"/>
		<polygon class="st18" points="56.5,145.7 56.5,125.9 75.9,107.6 98.1,125.9 143.5,95 158.9,125.9 158.9,145.7 		"/>
	</g>
	
		<linearGradient id="SVGID_15_" gradientUnits="userSpaceOnUse" x1="1091.4695" y1="54.3152" x2="1091.4695" y2="174.8913" gradientTransform="matrix(-1 0 0 1 1199.2129 0)">
		<stop  offset="0" style="stop-color:#50AFE1"/>
		<stop  offset="1" style="stop-color:#0578C8"/>
	</linearGradient>
	<path class="st22" d="M30.4,57.1c5,5,10,10,15,15c-3,2-4.9,5.3-4.9,9v67.1c0,6.1,5.4,11.1,12.1,11.1H163c6.7,0,12.1-5,12.1-11.1
		V81.1c0-6.1-5.4-11.1-12.1-11.1H98.1c-3.9-12,2.7-14.9,1.4-15.5c0-0.1-0.1-0.1-0.1-0.2h77.1c8.3,0,15,6.7,15,15v90.6
		c0,8.3-6.7,15-15,15H39.1c-8.3,0-15-6.7-15-15V69.3C24.1,64.3,26.6,59.8,30.4,57.1z"/>
</g>
<g id="πœ_xBA_h_x5F_15">
</g>
<g id="πœ_xBA_h_x5F_16">
</g>
</svg>